<svg width="0" height="0" class="hidden">
  <symbol xmlns="http://www.w3.org/2000/svg" viewBox="0 0 135 28" id="logo-footer">
    <path fill-rule="evenodd" clip-rule="evenodd" d="M29.177 26.741h-7.082l-1.001-1.309a41.38 41.38 0 01-3.696 1.232c-1.077.23-2.232.385-3.54.385-4.312 0-7.7-1.078-10.086-3.157C1.232 21.737 0 18.427 0 14.192c0-4.31 1.155-7.621 3.387-9.854C5.697 2.106 9.161.951 13.857.951c4.542 0 8.007 1.232 10.393 3.618 2.079 2.079 3.08 4.773 3.08 8.007 0 2.386-.077 4.157-.308 5.235-.308 1.693-1.078 3.31-2.156 4.773l4.311 4.157zm-8.083-12.78c0-2.309-.462-4.157-1.463-5.62-1.232-1.847-3.233-2.77-5.85-2.77-2.464 0-4.389.692-5.62 2.155-1.232 1.386-1.848 3.464-1.848 6.159 0 3.002.693 5.234 2.155 6.62 1.309 1.232 3.234 1.848 5.774 1.848 2.31 0 4.003-.693 5.158-2.079 1.155-1.462 1.694-3.541 1.694-6.313zm34.797 4.851c0 2.232-.77 4.08-2.232 5.62-1.463 1.54-3.31 2.232-5.62 2.232H30.332v-4.542h14.704c1.001 0 1.848-.231 2.464-.693.77-.539 1.155-1.232 1.155-2.155 0-2.156-1.54-3.234-4.542-3.234h-7.39c-2.156 0-4.004-.693-5.62-2.001-1.617-1.31-2.387-3.003-2.387-5.081 0-2.233.77-4.08 2.386-5.466 1.54-1.386 3.619-2.079 6.236-2.079h17.014v4.311h-15.09c-.692 0-1.385.308-2 .847-.77.539-1.079 1.232-1.079 2.002 0 .846.308 1.616 1.001 2.155.693.616 1.463.847 2.387.847h8.16c2.54 0 4.542.693 6.005 2.002 1.463 1.308 2.155 3.079 2.155 5.235zm29.1-4.85c0 4.927-1.385 8.39-4.08 10.546-2.232 1.694-5.466 2.54-9.623 2.54-4.696 0-8.16-1-10.393-2.924-2.463-2.156-3.695-5.62-3.695-10.393 0-3.927 1.078-7.006 3.31-9.162 2.387-2.386 5.928-3.54 10.701-3.54 5.235 0 8.853 1.154 11.009 3.387 1.847 2.001 2.771 5.157 2.771 9.546zm-6.466-.154c0-2.464-.616-4.465-1.771-5.928-1.309-1.617-3.31-2.464-5.85-2.464-2.541 0-4.466.847-5.775 2.618-1.077 1.462-1.616 3.387-1.616 5.697 0 2.694.462 4.696 1.308 6.004 1.232 1.771 3.388 2.695 6.698 2.695 2.771 0 4.696-.847 5.774-2.618.847-1.231 1.232-3.31 1.232-6.004zm31.794 2.309H92.92v10.47h-6.236V11.113c0-.924.154-2.001.54-3.156.692-2.079 2-3.619 3.925-4.696 2.233-1.232 5.928-1.848 11.009-1.848h32.565v4.234h-9.393v20.94h-5.85V5.647c-6.005 0-11.702-.077-17.707-.077-2.31 0-3.926.154-4.85.385-1.616.385-2.694 1.309-3.387 2.618-.539 1-.77 2.078-.77 3.31h17.553v4.234z"></path>
  </symbol>
  <symbol xmlns="http://www.w3.org/2000/svg" viewBox="0 0 31 30" id="youtube">
    <path d="M15.723 0c-8.284 0-15 6.716-15 15 0 8.284 6.716 15 15 15 8.283 0 15-6.716 15-15 0-8.284-6.717-15-15-15zm5.55 21.115c-2.627.18-8.48.18-11.103 0C7.325 20.92 6.994 19.528 6.973 15c.02-4.536.356-5.92 3.197-6.115 2.624-.18 8.478-.18 11.104 0 2.846.195 3.176 1.588 3.199 6.115-.023 4.536-.357 5.92-3.2 6.115zm-8.05-9.042l6.146 2.922-6.146 2.932v-5.854z"></path>
  </symbol>
  <symbol xmlns="http://www.w3.org/2000/svg" viewBox="0 0 31 30" id="instagram">
    <path d="M19.259 7.878c-.923-.043-1.2-.05-3.536-.05-2.337 0-2.613.008-3.535.05-2.374.108-3.48 1.232-3.588 3.587-.041.922-.051 1.199-.051 3.535 0 2.336.01 2.613.051 3.536.109 2.349 1.209 3.479 3.588 3.588.92.041 1.198.051 3.535.051s2.613-.009 3.536-.051c2.374-.108 3.477-1.235 3.587-3.588.042-.922.05-1.2.05-3.536 0-2.336-.008-2.613-.05-3.535-.11-2.354-1.216-3.479-3.587-3.587zm-3.536 11.616a4.494 4.494 0 110-8.988 4.494 4.494 0 010 8.988zm4.67-8.114a1.05 1.05 0 110-2.1 1.05 1.05 0 010 2.1zM18.64 15a2.916 2.916 0 11-5.833 0 2.916 2.916 0 015.833 0zM15.723 0c-8.284 0-15 6.716-15 15 0 8.284 6.716 15 15 15 8.283 0 15-6.716 15-15 0-8.284-6.717-15-15-15zm8.697 18.608c-.144 3.18-1.915 4.943-5.089 5.09-.933.042-1.232.052-3.608.052-2.377 0-2.674-.01-3.608-.052-3.18-.147-4.944-1.912-5.09-5.09-.042-.933-.052-1.232-.052-3.608 0-2.376.01-2.674.052-3.607.146-3.18 1.911-4.944 5.09-5.09.934-.043 1.231-.053 3.608-.053 2.376 0 2.675.01 3.608.054 3.182.146 4.947 1.915 5.09 5.088.042.934.052 1.232.052 3.608 0 2.376-.01 2.675-.053 3.608z"></path>
  </symbol>
</svg>