<svg width="96" height="20" viewBox="0 0 96 20" fill="none" xmlns="http://www.w3.org/2000/svg">
<path fill-rule="evenodd" clip-rule="evenodd" d="M20.8326 19.1173H15.8529L15.1492 18.1971C14.1749 18.576 13.3089 18.8466 12.5511 19.0631C11.7933 19.2255 10.9814 19.3338 10.0613 19.3338C7.03014 19.3338 4.64854 18.576 2.9706 17.1145C1.1844 15.599 0.318359 13.2715 0.318359 10.2945C0.318359 7.26338 1.13027 4.93591 2.69996 3.36622C4.32378 1.79653 6.7595 0.984619 10.0613 0.984619C13.2548 0.984619 15.6905 1.85066 17.3684 3.5286C18.8299 4.99004 19.5335 6.88449 19.5335 9.15784C19.5335 10.8358 19.4794 12.0807 19.317 12.8385C19.1005 14.0293 18.5592 15.166 17.8015 16.1944L20.8326 19.1173ZM15.1492 10.1321C15.1492 8.50831 14.8245 7.20926 14.1208 6.18084C13.2548 4.88178 11.8475 4.23226 10.0071 4.23226C8.27507 4.23226 6.92189 4.7194 6.05585 5.74782C5.18981 6.72211 4.75679 8.18355 4.75679 10.078C4.75679 12.189 5.24394 13.7587 6.27236 14.7329C7.19252 15.599 8.5457 16.032 10.3319 16.032C11.9557 16.032 13.1465 15.5449 13.9584 14.5706C14.7703 13.5421 15.1492 12.0807 15.1492 10.1321Z" fill="#F95A59"/>
<path fill-rule="evenodd" clip-rule="evenodd" d="M39.6152 13.5422C39.6152 15.1119 39.0739 16.411 38.0455 17.4935C37.0171 18.576 35.7181 19.0632 34.0942 19.0632H21.645V15.8697H31.9833C32.6869 15.8697 33.2823 15.7073 33.7154 15.3825C34.2566 15.0036 34.5273 14.5165 34.5273 13.867C34.5273 12.3514 33.4447 11.5936 31.3338 11.5936H26.1375C24.622 11.5936 23.3229 11.1065 22.1862 10.1863C21.0496 9.26615 20.5083 8.07535 20.5083 6.61392C20.5083 5.04423 21.0496 3.74517 22.1862 2.77088C23.2688 1.79659 24.7302 1.30945 26.5706 1.30945H38.5327V4.34057H27.9237C27.4366 4.34057 26.9494 4.55708 26.5164 4.93597C25.9752 5.31486 25.7586 5.80201 25.7586 6.34328C25.7586 6.93868 25.9752 7.47995 26.4623 7.85885C26.9494 8.29186 27.4907 8.45425 28.1402 8.45425H33.8777C35.6639 8.45425 37.0712 8.94139 38.0997 9.86155C39.1281 10.7817 39.6152 12.0266 39.6152 13.5422Z" fill="#F95A59"/>
<path fill-rule="evenodd" clip-rule="evenodd" d="M60.0751 10.1322C60.0751 13.5963 59.1008 16.0321 57.2064 17.5476C55.6367 18.7384 53.3633 19.3338 50.4404 19.3338C47.1387 19.3338 44.703 18.6302 43.1333 17.277C41.4012 15.7614 40.5352 13.3257 40.5352 9.96982C40.5352 7.20933 41.2929 5.04424 42.8626 3.52867C44.5406 1.85073 47.0304 1.03882 50.3863 1.03882C54.067 1.03882 56.611 1.85073 58.1265 3.42042C59.4256 4.82773 60.0751 7.04694 60.0751 10.1322ZM55.5284 10.0239C55.5284 8.29187 55.0954 6.88456 54.2835 5.85614C53.3633 4.71947 51.956 4.12407 50.1698 4.12407C48.3836 4.12407 47.0304 4.71947 46.1103 5.9644C45.3525 6.99282 44.9736 8.346 44.9736 9.96982C44.9736 11.8643 45.2984 13.2716 45.8938 14.1917C46.7598 15.4367 48.2754 16.0862 50.6028 16.0862C52.5514 16.0862 53.9046 15.4908 54.6624 14.2459C55.2578 13.3798 55.5284 11.9184 55.5284 10.0239Z" fill="#F95A59"/>
<path fill-rule="evenodd" clip-rule="evenodd" d="M77.8827 11.6478H65.6499V19.0091H61.2656V8.12948C61.2656 7.47996 61.3739 6.72217 61.6445 5.91026C62.1317 4.44883 63.0518 3.36628 64.405 2.6085C65.9747 1.74247 68.5728 1.30945 72.1452 1.30945C79.7771 1.30945 87.4091 1.30945 95.041 1.30945V4.28645H88.4375V19.0091H84.3238V4.28645C80.1019 4.28645 76.0965 4.23232 71.8746 4.23232C70.2507 4.23232 69.1141 4.34057 68.4646 4.50296C67.3279 4.77359 66.5701 5.42312 66.083 6.34328C65.7041 7.04694 65.5417 7.80472 65.5417 8.67076H77.8827V11.6478Z" fill="#F95A59"/>
</svg>
